<svg xmlns="http://www.w3.org/2000/svg" width="20.045" height="23.052" viewBox="0 0 20.045 23.052">
  <g id="account-user-avatar-svgrepo-com" transform="translate(-4 -1)">
    <path id="Pfad_4" data-name="Pfad 4" d="M19.011,11.022a5.011,5.011,0,1,1,5.011-5.011,5.011,5.011,0,0,1-5.011,5.011Zm0-8.018a3.007,3.007,0,1,0,3.007,3.007A3.007,3.007,0,0,0,19.011,3Z" transform="translate(-4.989)" fill="#0a966b"/>
    <path id="Pfad_5" data-name="Pfad 5" d="M23.043,35.027H5a1,1,0,0,1-1-1V31.018A8.018,8.018,0,0,1,12.018,23h4.009a8.018,8.018,0,0,1,8.018,8.018v3.007A1,1,0,0,1,23.043,35.027ZM6,33.022H22.04v-2A6.013,6.013,0,0,0,16.027,25H12.018A6.013,6.013,0,0,0,6,31.018Z" transform="translate(0 -10.975)" fill="#0a966b"/>
  </g>
</svg>
