<svg id="quotation-right-mark-svgrepo-com" xmlns="http://www.w3.org/2000/svg" width="75.32" height="70" viewBox="0 0 75.32 70">
  <path id="Pfad_8" data-name="Pfad 8" d="M42.89,79.239V66.672a3.086,3.086,0,0,1,3.086-3.086c6.081,0,9.389-6.237,9.848-18.548H45.976a3.088,3.088,0,0,1-3.086-3.086V15.415a3.086,3.086,0,0,1,3.086-3.086H72.233a3.087,3.087,0,0,1,3.087,3.086V41.952a68.168,68.168,0,0,1-1.765,16.1,38.726,38.726,0,0,1-5.48,12.741A26.748,26.748,0,0,1,58.763,79.3a26.511,26.511,0,0,1-12.788,3.026A3.089,3.089,0,0,1,42.89,79.239ZM3.086,63.585A3.086,3.086,0,0,0,0,66.67V79.24a3.086,3.086,0,0,0,3.086,3.085A26.5,26.5,0,0,0,15.871,79.3a26.706,26.706,0,0,0,9.313-8.509,38.689,38.689,0,0,0,5.481-12.743,68.131,68.131,0,0,0,1.765-16.1V15.413a3.087,3.087,0,0,0-3.086-3.086H3.086A3.086,3.086,0,0,0,0,15.413V41.949a3.086,3.086,0,0,0,3.086,3.086H12.8C12.342,57.348,9.082,63.585,3.086,63.585Z" transform="translate(0 -12.327)" fill="#bc9a6b"/>
</svg>
