<svg id="quotation-mark-svgrepo-com" xmlns="http://www.w3.org/2000/svg" width="75.322" height="70" viewBox="0 0 75.322 70">
  <path id="Pfad_7" data-name="Pfad 7" d="M32.431,15.419V27.988a3.086,3.086,0,0,1-3.086,3.086c-6.082,0-9.39,6.238-9.849,18.549h9.849a3.087,3.087,0,0,1,3.086,3.086V79.248a3.086,3.086,0,0,1-3.086,3.085H3.086A3.086,3.086,0,0,1,0,79.248V52.709a68.056,68.056,0,0,1,1.766-16.1,38.735,38.735,0,0,1,5.48-12.741,26.751,26.751,0,0,1,9.313-8.51,26.5,26.5,0,0,1,12.787-3.026A3.086,3.086,0,0,1,32.431,15.419Zm39.8,15.655a3.087,3.087,0,0,0,3.087-3.086V15.419a3.086,3.086,0,0,0-3.087-3.086,25.633,25.633,0,0,0-22.1,11.536,38.754,38.754,0,0,0-5.479,12.742,68.107,68.107,0,0,0-1.765,16.1V79.248a3.086,3.086,0,0,0,3.086,3.085H72.235a3.086,3.086,0,0,0,3.085-3.085V52.709a3.086,3.086,0,0,0-3.085-3.086H62.527C62.979,37.311,66.239,31.074,72.235,31.074Z" transform="translate(0 -12.333)" fill="#bc9a6b"/>
</svg>
