<svg xmlns="http://www.w3.org/2000/svg" width="25" height="25" viewBox="0 0 25 25">
  <g id="Gruppe_260" data-name="Gruppe 260" transform="translate(-1093 -43)">
    <path id="person_1_" data-name="person (1)" d="M14.5,14.5A6.25,6.25,0,1,0,8.25,8.25,6.25,6.25,0,0,0,14.5,14.5m4.167-6.25A4.167,4.167,0,1,1,14.5,4.083,4.167,4.167,0,0,1,18.667,8.25M27,24.917A2.04,2.04,0,0,1,24.917,27H4.083A2.04,2.04,0,0,1,2,24.917c0-2.083,2.083-8.333,12.5-8.333S27,22.833,27,24.917m-2.083-.008a5.566,5.566,0,0,0-1.733-3.467c-1.358-1.358-3.915-2.775-8.683-2.775s-7.325,1.417-8.683,2.775a5.578,5.578,0,0,0-1.733,3.467Z" transform="translate(1091 41)" fill="#025959"/>
  </g>
</svg>
